/* XPM */
static const char *silver_icon_xpm[] = {
/* columns rows colors chars-per-pixel */
"64 64 150 2 ",
"   c None",
".  c #010101",
"X  c #0B0B0B",
"o  c #131313",
"O  c #1C1C1C",
"+  c #201F1F",
"@  c #242424",
"#  c #282727",
"$  c #2C2C2B",
"%  c #302F2F",
"&  c #333332",
"*  c #383737",
"=  c #3A3A3A",
"-  c #434343",
";  c #484747",
":  c #4B4B4B",
">  c #535353",
",  c #585757",
"<  c #585857",
"1  c #5C5C5C",
"2  c #605F5F",
"3  c #5F6060",
"4  c #636363",
"5  c #6C6C6C",
"6  c #706F6F",
"7  c #71716F",
"8  c #737272",
"9  c #787777",
"0  c #787877",
"q  c #7C7B7B",
"w  c #807F7F",
"e  c #80807E",
"r  c #848484",
"t  c #888787",
"y  c #888887",
"u  c #8C8C8C",
"i  c #908F8F",
"p  c #939393",
"a  c #989797",
"s  c #9C9B9B",
"d  c #A09F9F",
"f  c #A4A3A3",
"g  c #A8A7A7",
"h  c #A8A8A7",
"j  c #ACABAB",
"k  c #B0AFAF",
"l  c #B0B0AF",
"z  c #B4B3B3",
"x  c #B8B7B7",
"c  c #B8B8B6",
"v  c #BCBCBC",
"b  c #C0BFBF",
"n  c #C1C0BF",
"m  c #C6C6C5",
"M  c gray78",
"N  c #C3C2C2",
"B  c #C8C7C6",
"V  c #C9C9C7",
"C  c #C8C8C6",
"Z  c #C9C9C7",
"A  c #C9C9C8",
"S  c #CBCBC9",
"D  c #CBCBCB",
"F  c #CCCBCB",
"G  c #CDCDCB",
"H  c gray80",
"J  c #CFCFCD",
"K  c #CCCBCB",
"L  c #D1D1CF",
"P  c #D3D3D1",
"I  c LightGray",
"U  c #D4D3D3",
"Y  c #D5D5D3",
"T  c #D4D4D2",
"R  c gray83",
"E  c #D6D6D4",
"W  c gray84",
"Q  c #D7D7D7",
"!  c #D4D4D4",
"~  c #D8D8D5",
"^  c #D8D8D6",
"/  c #D8D8D7",
"(  c #D9D9D7",
")  c #D9D9D7",
"_  c #D8D8D8",
"`  c gray85",
"'  c #DADAD8",
"]  c #DADADA",
"[  c #DBDBDA",
"{  c gray86",
"}  c #DCDCDA",
"|  c gainsboro",
" . c #DDDCDC",
".. c #DDDDDD",
"X. c gray87",
"o. c #DFDFDF",
"O. c #DDDDDD",
"+. c #E0DFDF",
"@. c gray88",
"#. c #E0E1E1",
"$. c #E1E1E1",
"%. c #E2E2E0",
"&. c #E2E2E2",
"*. c gray89",
"=. c #E4E4E4",
"-. c #E6E6E5",
";. c #E7E7E5",
":. c #E6E6E6",
">. c #E7E7E7",
",. c #E3E3E3",
"<. c #E8E8E6",
"1. c #E8E8E7",
"2. c #E9E9E7",
"3. c gray91",
"4. c #E9E9E9",
"5. c #EAEAEA",
"6. c #EBEBEA",
"7. c gray92",
"8. c #ECECEB",
"9. c #EDEDEB",
"0. c #ECECEC",
"q. c gray93",
"w. c #EEEEEE",
"e. c #EFEFEE",
"r. c #EFEFEF",
"t. c #ECECEC",
"y. c #F0F0EE",
"u. c #F1F1EF",
"i. c gray94",
"p. c #F1F1F0",
"a. c #F1F1F1",
"s. c #F2F2F1",
"d. c gray95",
"f. c #F3F3F2",
"g. c #F3F3F3",
"h. c #F4F4F3",
"j. c #F4F4F4",
"k. c #F5F5F4",
"l. c #F6F6F5",
"z. c #F6F6F6",
"x. c gray97",
"c. c #F3F3F3",
"v. c #F8F8F8",
"b. c #F9F9F8",
"n. c gray98",
"m. c gray99",
"M. c #FDFDFD",
"N. c #FEFEFE",
"B. c white",
"V. c #FEFEFE",
/* pixels */
"                                  . . . . . . . . .                                                                             ",
"                                . . $ * $ @ o X . . . . . . . . . . . . . . . . . . . . . . . . . . .                           ",
"                                . 4 u.y.x.i.5.| D N z j h f s a u u r q 0 8 5 8 0 e r u u r 0 2 = $ . .                         ",
"                                . z m.x.m.m.m.m.m.m.m.m.m.m.m.m.m.m.m.m.m.m.m.m.m.b.u.r.>.-.;.6.b.m.- .                         ",
"                              . . c >.V ) %.;.6.u.i.i.h.h.h.f.f.h.h.x.i.i.u.y.i.v.m.m.m.m.m.m.m.x.h.q .                         ",
"                              . . v ) m c g a t 0 5 4 1 < , > , 1 4 7 r d c J ] ) L T ] | } } T V T u . .                       ",
"                              . . : * O X . . . . . . . . . . . . . . . . . O > a G T D M V D M D ) p . .                       ",
"                          . . . . . . . . X O @ $ - > 4 q f f s z x l d t 1 & X . o 2 h z h g g l T s . .                       ",
"                      . = 8 i f j v M R >.r.x.v.m.m.m.m.m.m.v.5.x.m.m.m.m.x.5.R h < X . 4 j g f s C a . .                       ",
"                    . a m.m.m.m.m.m.m.m.v.i.i.r.r.5.5.>.$.{ ] | { $.$.>.3.| ] @.5.r.] 0 X O u z s M a .                         ",
"                  . 0 m.m.x.5.$.| ] ] ] ] ] { ] ] ] | ] | | | | | { | ] ] ] | | { ] @.r.R 1 . , m <.i .                         ",
"                  $ m.m.r.| ] | | | | | | | | $.| | $.| | | | | | $.$.$.$.@.$.| | | { ] @.r.z $ # < & .                         ",
"                . f m.r.] | $.| | @.| @.@.| | | | | | | | | $.$.] D N v v b H | | @.| | | ] 3.3.6 . .                           ",
"                = m.v.| | | | | | | | | | | +.| $.| | $.$.] D z k j f a u t t v $.{ @.| | | { | i.v $                           ",
"              . s m.$.| | @.| @.| @.| | | | | | $.$.| H x j j f u < $ X . . . = U @.| | @.| @.| ] 3.$.> .                       ",
"              # t.m.| | | | | | | | @.| @.| | $.R v z j g p 2 # . . . . . . . . a 7.{ | | | | | | | | i.r .                     ",
"              5 m.5.] | | | | | | $.| | | $.R z h j s 6 & . . . . . . . . . . . p 7.] @.| @.| @.| | | | g.s .                   ",
"              h m.{ | | | $.| $.| | | | $.H f j p : o . . . . . X . . . . . . & R @.| | | | | | | | | | ` i.f X                 ",
"            o $.m.] | @.| $.| | | | | $.U f j , . . . . . . . . . . O - 9 u f ] $.| | | | @.| | | @.| @.| ] g.t .               ",
"            = m.r.] @.| | | | | | $.| $.x j 1 . . . . . . . . O < f P 5.i.x.i.5.| | @.| | | @.| | | | | | | ` y.-               ",
"            4 m.>.] | | @.| @.| | +.| | z s O . . . . . . * i P r.g.x.v.m.m.m.m.5.| | | | | | | | @.| | | @.] 5.h .             ",
"          . a m.| | | | | | | | | | | | z u . . . . o 5 x >.7.7.x.m.m.v.i.r.r.5.@.| @.| @.| @.| | | @.| | | | | $.$             ",
"          . P m.| | @.| | | @.| @.| | $.v p X . . . = 7.3.] | m.m.r.>.{ | | | | | | | | | | | @.| | | | | | | ] i.4             ",
"          O v.v.| | | | | @.| | | | | $.D f # . . . . 8 _ | | >.$.] | | | @.| @.| | @.| @.| | | @.| @.| @.| @.] r.a .           ",
"        . = m.i.] | | @.@.| | | @.| @.| ] x 2 . . . . . 5 F | | | | @.| | | | | | | | | | @.| | | | | | | | | | >.v X           ",
"        . < m.r.] | | | | | | @.| | | | $.H d O . . . . . : z R $.| | | | @.| @.@.| @.| | | @.| | @.| @.| @.| | @.R @           ",
"        . 5 m.>.| $.| @.@.| @.| | @.| @.| +.D r X . . . . . + t F | | | @.| | | | | | @.| | | | @.| | | @.| @.| | >.*           ",
"        . 8 m.>.{ | | | | | | | | | | | | | | H q X . . . . . . > x | @.| | | @.@.| | | @.| @.| | | | @.| | | | ] r.:           ",
"        . 1 m.| | | @.| | | @.| | @.| | | @.@.| U p O . . . . . . $ f { | | | @.| | | | | | | | @.| @.| @.| | | ] r.1           ",
"        . - >.] | | | | | @.| | | | @.| | | | | | ] j = . . . . . . o u { | | | @.| @.| | @.| @.| | | | | | | @.] i.5 .         ",
"        . # | | | | | | | | | | | | | | | | | | | | +.H 8 X . . . . . X 0 ] | | | | | | @.| | | | | @.| @.| | | ` r.5 .         ",
"        . X D $.| @.| @.| @.| @.@.| @.| @.| @.| | | | +.] f & . . . . . . 6 ] $.| @.| @.| | | @.| @.| | | | | | ] r.5 .         ",
"        . . f 3.{ | | | | | | | | | | | | | | | | @.| | | | v > . . . . . . 5 / | | | @.| | | @.| @.| | | @.| @.] i.4 .         ",
"        O . 9 r.] @.| @.| @.| @.| @.| @.| @.| @.| | | @.| | @.D 5 . . . . . . 5 { @.| | @.| | | | | @.| | | | | ] i., .         ",
"        + O = r.] | | | @.| | | @.| | | @.| | | | @.| | @.| @.| H q X . . . . . 8 | | | | @.| @.| | | | | @.| | { r.= .         ",
"      . @ = o ] @.| | @.| | | @.| | | @.| | | @.| | | @.| | | | $.H r X . . . . . 0 $.| | | | | @.| @.| | | @.| | | O           ",
"      . @ > . z >.{ | | | | @.| @.| @.| @.| | | | | | | | | | | | | F r X . . . . . t $.| | | | | | | @.| | | | *.N X .         ",
"      . # 5 . t 7.] @.| | @.| | | | | | | | @.| @.@.| @.@.+.$.+.$.$.$.H w X . . . . X g 5.| | @.@.| | | @.| | { 5.a . .         ",
"      . @ q . , 7.{ | | | | | | | | @.| $.| _ ] _ ] ] _ R R P H B N v z x u X . . . . - >.] | | | @.| @.| @.| ] t.4 . .         ",
"      . # p . $ @.| @.| | @.| @.@.| | @.N j z z z z x z z z k j g d a u 0 5 O . . . . O R @.| | | | | | | | | | $.& . .         ",
"      . # f X . H *.{ | @.| | | | | $.b f s 5 , < < 1 1 1 > : = $ O X . . . . . . X . $ | | | @.@.| @.| | | { $.N X . .         ",
"      . @ j @ . h 5.{ | | | | @.| | | j f $ . . . . . . . . . . . . . . . . . . . . . u 5.| | | | | | | | | ] r.w X o .         ",
"      . O z - . q r.] | @.| @.| @.| { z r . . . . . . . . . . . . . . . . . . . . o p >.x.m.@.| | | @.| @.| ] >.& - o .         ",
"      . o j 4 . - 3.] | | | | | | | @.b t . . . . . . . . . . . . . . . . . . $ q P 5.r.m.g.| @.| @.| | | | 3.l . 5 . .         ",
"      . . s p . X P @.{ | | | | | | @.] v 1 X . . X . X X . X X O O $ - 4 u v | r.3.x.m.x.{ | | | | | | | ] 7.- @ 0 . .         ",
"        . r z $ . q i.] +.{ | @.@.| | | @.@.H M N N N v v N M D L ] $.5.i.5.3.r.x.m.m.r.| | | | | @.| @.] 5.j . 5 1 .           ",
"        . 1 x 8 . X x m.n.r.$.{ | | | @.| { >.m.m.m.m.m.v.x.v.x.x.v.m.m.m.>.@.m.m.i.*.{ | @.| @.| | | | | | # . f $ .           ",
"        . & h g - . o j m.m.m.g.*.| | | @.| +.i.x.m.m.m.m.m.m.m.m.m.n.x.i.>.{ $.@.{ | @.| | | | @.| | | >.> . 4 a . .           ",
"        . . u M b > . . > L m.m.m.r.| | | | | | | | $.$.$.$.$.$.+.| | | | | | | | @.| | | | | | | _ $.3.< . # z > .             ",
"          . = F J n i - . X 8 +.m.>.] { | | | | | $.| | | | | | | @.| | @.| | | | | | { | | { ) @.r.D - . o a s X .             ",
"          . . 5 L F v k u & . o r | r.$.| ] | | | | | | | | | | | @.| | | | { | | { ] ] { $.>.r.] q o . $ a x = .               ",
"            . . 4 G T b j h r # . O t R r.5.$.| ] ] ] ] ] ] ] ] ] ] { | | | @.$.>.5.r.r.5.] z 4 o . X < f z 8 . .               ",
"              . . % g ] j s j j r $ . X > s H =.r.r.r.5.7.5.5.r.r.r.5.3.=.| R M x f r 3 * X . . o < f B z t X .                 ",
"                  . . - a z j f j k u : X . . O - 1 9 r u p p 0 4 : = $ + o o X X X o O $ - 2 t f z V L u X .                   ",
"                      . . * w j k f g z h u 4 * O . . . . . . . . X + & : 1 6 t p f h k l z l h h N T i X .                     ",
"                          . . + 1 p k j g h j z j f s p u t r p a f k z z z j j g g f f f f d l D R y X .                       ",
"                                . X $ 5 a k h f d g g j j j j h g f f f f f f f f f f f f h v U J 8 . .                         ",
"                                      . X = 9 f k g d d f f f f f f f f f f f f f f f f x L T z : . .                           ",
"                                          . . o > p k k g f f f f f d f f f f h g j j M { z 5 o . .                             ",
"                                              . . . & 8 a j k z z z z j k j f f a u 9 1 = X . .                                 ",
"                                                  . . . . # = - : : - * $ @ O X . . . . . .                                     ",
"                                                        . . . . . . . . . . . . . .                                             ",
"                                                                                                                                ",
"                                                                                                                                "
};